<svg version="1.1" id="Layer_1" xmlns="http://www.w3.org/2000/svg" xmlns:xlink="http://www.w3.org/1999/xlink" x="0px" y="0px"
	 width="100%" viewBox="0 0 199 172" enable-background="new 0 0 199 172" xml:space="preserve">
<path fill="#FCFEFE" opacity="1.000000" stroke="none" 
	d="
M114.000000,173.000000 
	C76.000000,173.000000 38.500004,173.000000 1.000005,173.000000 
	C1.000003,115.666672 1.000003,58.333344 1.000002,1.000013 
	C67.333321,1.000008 133.666641,1.000008 199.999969,1.000004 
	C199.999985,58.333317 199.999985,115.666634 200.000000,172.999969 
	C171.500000,173.000000 143.000000,173.000000 114.000000,173.000000 
M179.997955,72.001366 
	C179.997955,72.001366 180.025284,72.015396 179.578979,72.216194 
	C179.299301,72.410812 179.113083,72.672058 179.006180,73.007706 
	C179.006180,73.007706 178.994186,73.018509 178.596527,73.139290 
	C178.338837,73.273529 178.155777,73.475441 177.597794,74.084038 
	C177.382111,74.381042 177.166428,74.678055 176.996140,75.003082 
	C176.996140,75.003082 176.985001,74.950882 176.519073,74.985184 
	C176.519073,74.985184 176.055359,75.042007 175.593918,75.222816 
	C175.303528,75.414391 175.116516,75.679047 175.004562,76.005127 
	C175.004562,76.005127 175.017715,76.032913 174.599274,76.174614 
	C174.334259,76.327499 174.140427,76.544098 173.398193,77.139877 
	C171.276337,78.435532 169.154465,79.731178 166.623016,81.144592 
	C166.358002,81.277893 166.164963,81.479958 165.436996,81.977417 
	C164.661407,82.332428 163.885803,82.687447 162.661240,83.166222 
	C162.373642,83.311913 162.157516,83.528831 161.361435,84.013771 
	C160.310196,84.372421 159.258972,84.731071 157.596558,85.062363 
	C157.071518,85.318138 156.546494,85.573921 155.573975,86.002098 
	C155.573975,86.002098 155.096436,86.045853 154.274368,86.018387 
	C151.425690,86.199959 148.577011,86.381531 145.825150,86.198608 
	C145.825150,86.198608 146.131195,85.978233 146.536545,85.764626 
	C146.784576,85.560921 146.935837,85.300888 147.043610,84.478371 
	C147.116959,84.325394 147.190323,84.172424 147.988525,83.986305 
	C150.904510,82.604897 153.850876,81.281883 156.710999,79.793205 
	C157.288910,79.492416 157.540497,78.564735 157.997009,77.996719 
	C157.997009,77.996719 157.925018,77.944084 158.357788,77.846695 
	C158.639328,77.716660 158.843399,77.510078 159.569687,77.021347 
	C159.990555,76.985725 160.411423,76.950104 161.307510,76.813316 
	C161.617249,76.670647 161.837677,76.441895 162.274338,75.875526 
	C162.274338,75.875526 162.669495,75.853905 163.201630,75.798935 
	C163.460663,75.565392 163.719696,75.331856 164.231049,74.852234 
	C164.231049,74.852234 164.583435,74.845467 165.171539,74.769363 
	C165.434738,74.489883 165.697952,74.210403 165.996490,73.995888 
	C165.996490,73.995888 165.934555,73.955452 166.372284,73.830589 
	C166.652237,73.682648 166.854935,73.463287 167.408737,72.990700 
	C167.408737,72.990700 167.870972,72.936615 168.576309,72.915451 
	C169.369446,71.927231 170.162582,70.939011 171.123199,69.468163 
	C171.407639,69.298546 171.692078,69.128937 172.708679,68.992584 
	C180.143967,66.250221 184.920990,59.091259 183.045441,53.166592 
	C179.937531,53.318653 178.359589,54.993679 177.862396,58.568600 
	C177.535172,58.705421 177.207962,58.842243 176.145187,58.984589 
	C170.768799,61.985512 165.392426,64.986435 160.004028,68.014160 
	C160.004028,68.014160 159.975021,68.009651 159.106308,67.989609 
	C157.538971,67.883911 155.971649,67.778206 155.562454,67.750610 
	C153.921158,62.926182 152.577728,58.977238 151.011322,54.373215 
	C151.005981,53.914917 151.000626,53.456623 151.562973,52.491177 
	C152.802155,48.379753 151.377106,45.322433 147.928452,43.010849 
	C147.928452,43.010849 147.895142,43.125759 147.969498,42.342098 
	C147.271683,41.244297 146.573868,40.146496 145.364395,38.736439 
	C145.226837,38.164082 145.089279,37.591724 145.487961,36.618675 
	C144.318756,35.416012 143.149536,34.213348 141.999847,32.998951 
	C141.999847,32.998951 141.989151,33.018288 142.003372,32.229347 
	C140.973251,31.171118 139.943146,30.112886 138.988541,29.009720 
	C138.988541,29.009720 138.946609,29.086933 138.925323,28.378036 
	C137.912491,27.609659 136.899658,26.841284 135.975098,26.027153 
	C135.975098,26.027153 135.929382,26.115442 135.887070,25.394115 
	C135.132919,25.067245 134.378784,24.740376 133.864609,24.120443 
	C133.864609,24.120443 133.590790,24.382162 133.787125,23.649891 
	C131.522369,20.847977 129.259918,18.041716 124.408707,18.948746 
	C123.939491,18.633104 123.470276,18.317463 122.886299,17.281816 
	C118.175659,12.885677 112.670280,13.478871 106.249573,14.958764 
	C105.150589,14.901068 104.051613,14.843370 102.334465,14.289770 
	C99.220367,14.766758 95.414574,11.757317 93.005386,16.049944 
	C93.005386,16.049944 93.103096,16.081144 92.252213,16.015888 
	C87.368996,18.071846 82.407181,19.967422 77.657089,22.295048 
	C76.449745,22.886673 75.915329,24.851580 74.939285,26.636421 
	C74.750992,26.928574 74.483261,27.066221 73.623970,27.211323 
	C73.430519,27.501551 73.237061,27.791779 73.011681,28.002697 
	C73.011681,28.002697 73.074661,28.060522 72.335274,28.022112 
	C68.682404,29.960526 65.677139,32.347637 66.021217,36.999851 
	C66.021217,36.999851 66.092094,37.054592 65.365494,37.111046 
	C62.322174,39.022072 61.523094,41.812695 62.264771,45.148956 
	C62.264771,45.148956 62.276608,45.219215 61.588451,45.138939 
	C61.373909,46.086021 61.159363,47.033104 61.005150,48.671513 
	C60.924988,49.124279 60.844826,49.577049 60.138565,50.368690 
	C59.369507,52.848839 58.600445,55.328987 57.307369,57.946819 
	C56.863144,58.231148 56.418922,58.515472 55.949265,58.975189 
	C55.949265,58.975189 55.932194,59.151581 55.350544,59.067554 
	C54.968746,59.165726 54.586948,59.263901 53.842014,58.770844 
	C52.901466,59.160530 51.960918,59.550213 50.768799,60.329742 
	C50.768799,60.329742 50.612453,60.766575 49.901409,60.856686 
	C47.934834,61.616070 45.968258,62.375450 43.399933,63.002640 
	C42.915970,63.322353 42.432007,63.642067 41.991005,64.004868 
	C41.991005,64.004868 41.966572,63.949780 41.263420,64.062630 
	C38.863605,65.438782 36.463791,66.814934 34.063972,68.191086 
	C34.280075,68.670425 34.496178,69.149757 34.712280,69.629097 
	C38.306309,68.487785 41.900333,67.346481 45.793682,66.226631 
	C45.793682,66.226631 45.998890,66.007675 46.835304,66.062401 
	C50.546421,65.350578 54.257542,64.638763 58.508747,64.059654 
	C58.692017,64.087593 58.875282,64.115540 59.135349,65.027107 
	C59.080601,67.713654 59.025848,70.400200 58.152405,73.005035 
	C47.429825,74.815094 37.019829,77.475899 28.052706,84.551331 
	C33.948437,85.122040 39.473400,83.308159 45.967636,82.007133 
	C53.297436,81.971710 60.627239,81.936287 68.662163,82.273224 
	C74.106865,83.574249 79.551559,84.875282 85.177437,86.892876 
	C86.814743,87.246681 88.452042,87.600487 90.554581,88.014519 
	C90.554581,88.014519 90.995560,88.174545 91.165993,88.879623 
	C92.757248,89.255775 94.348503,89.631920 96.478851,90.015038 
	C96.650803,90.067291 96.822754,90.119537 97.152252,90.858177 
	C98.431358,91.241005 99.710464,91.623833 100.999695,91.999695 
	C100.999695,91.999695 100.994972,92.009064 101.144310,92.740501 
	C102.484879,93.134552 103.825455,93.528610 105.600586,93.959877 
	C105.600586,93.959877 105.997078,94.141586 106.158607,94.844559 
	C107.471634,95.210899 108.784668,95.577240 110.564285,96.028542 
	C110.564285,96.028542 111.009735,96.191345 111.269897,96.574562 
	C111.495697,96.807602 111.770424,96.935684 112.744743,97.004837 
	C113.167549,97.086273 113.590347,97.167702 114.255241,97.613625 
	C114.468636,97.833160 114.727959,97.954697 115.530228,98.039032 
	C115.689301,98.089569 115.848373,98.140106 116.276459,98.575981 
	C116.508766,98.809372 116.789307,98.935593 117.860115,98.985886 
	C119.248917,99.379066 120.637718,99.772240 122.452438,100.624489 
	C123.267639,100.762329 124.082832,100.900177 125.772873,101.017159 
	C127.517464,101.076599 129.262054,101.136040 131.179047,101.483162 
	C131.179047,101.483162 131.623474,101.599335 131.623474,101.599335 
	C131.623474,101.599335 131.984329,101.281326 132.866501,101.237259 
	C134.922836,101.257004 136.979187,101.276749 139.667831,101.742653 
	C142.772476,101.201675 145.877136,100.660698 149.618164,99.719353 
	C154.437805,97.531067 159.257446,95.342781 164.657486,93.028366 
	C165.115463,92.691948 165.573425,92.355537 166.005524,91.995590 
	C166.005524,91.995590 166.012939,92.028908 166.550842,91.954964 
	C166.744766,91.661667 166.938690,91.368370 167.049713,91.056335 
	C167.049713,91.056335 167.064163,91.140091 167.644516,91.019684 
	C168.110062,90.688004 168.575607,90.356323 169.010941,89.993538 
	C169.010941,89.993538 169.014267,90.036530 169.575211,89.975945 
	C169.780441,89.675400 169.985672,89.374863 170.626877,88.932617 
	C170.899231,88.745804 171.045944,88.487602 171.587311,88.020210 
	C171.840286,87.786636 172.093246,87.553055 172.206146,87.268394 
	C172.206146,87.268394 172.287674,87.393211 172.858124,87.245811 
	C173.264282,86.847427 173.670441,86.449051 174.013138,86.004944 
	C174.013138,86.004944 174.037735,86.079185 174.570831,85.949020 
	C174.738846,85.640526 174.906845,85.332024 175.498840,84.831413 
	C175.762466,84.643661 175.939560,84.394424 176.568893,83.973351 
	C176.756042,83.671165 176.943192,83.368973 177.046310,83.047943 
	C177.046310,83.047943 177.069946,83.130737 177.577835,82.958481 
	C177.764206,82.663651 177.950562,82.368820 178.053024,82.048737 
	C178.053024,82.048737 178.072464,82.134163 178.599899,81.972015 
	C178.787933,81.667046 178.975967,81.362076 179.682587,80.847931 
	C180.132553,80.266937 180.582504,79.685936 181.561203,78.944351 
	C181.700684,78.626099 181.840179,78.307846 182.002136,77.996361 
	C182.002136,77.996361 181.984177,77.977783 182.413101,77.702202 
	C182.656021,77.464294 182.898941,77.226387 183.583542,76.622437 
	C183.707962,76.075821 183.832367,75.529205 184.088547,74.480583 
	C184.372757,74.302895 184.656982,74.125214 185.644653,73.874840 
	C186.075089,72.902458 186.505508,71.930069 186.992508,70.988655 
	C186.992508,70.988655 186.952148,70.938202 187.613373,70.885887 
	C188.058670,70.225945 188.503967,69.566002 189.018585,68.183418 
	C189.581772,67.055130 190.341324,65.970329 190.605835,64.775902 
	C190.703644,64.334229 189.636948,63.634686 188.333450,63.040760 
	C187.571808,64.065582 186.810165,65.090401 185.791611,66.709435 
	C184.218307,68.150047 182.644989,69.590660 180.597610,71.215439 
	C180.403763,71.486000 180.209915,71.756561 179.997955,72.001366 
M135.003021,118.001495 
	C135.003021,118.001495 134.991302,118.021545 135.103027,118.424248 
	C135.233276,118.686211 135.433853,118.872437 136.016464,119.531898 
	C136.679184,120.042793 137.341888,120.553688 138.301346,121.497780 
	C138.617859,121.627846 138.934387,121.757912 140.095612,121.957520 
	C141.752884,121.978195 143.436325,122.196449 145.062332,121.981087 
	C149.289566,121.421188 151.888626,118.702286 152.809494,114.769974 
	C153.719223,110.885262 151.576080,108.009071 148.255829,106.313324 
	C144.855225,104.576546 141.257111,103.658920 137.409348,107.072975 
	C135.716034,107.057495 134.022720,107.042007 132.148270,106.320496 
	C129.798355,104.563492 128.173737,104.664818 127.212433,108.325073 
	C126.123108,108.562431 125.033791,108.799782 124.001656,109.005531 
	C124.001656,109.005531 123.966431,109.060616 123.851479,108.626274 
	C123.711090,108.347855 123.500366,108.141136 122.944321,107.327293 
	C120.694595,104.488869 118.327637,104.209427 115.094444,107.001137 
	C114.369598,107.017700 113.644760,107.034256 112.223465,106.759750 
	C108.295486,106.232529 104.367508,105.705307 99.481621,105.070061 
	C98.520958,105.104561 97.560295,105.139053 95.746643,105.313805 
	C92.083565,105.333824 88.420486,105.353836 84.013229,105.170601 
	C83.062073,105.314728 82.110909,105.458855 80.326630,105.805031 
	C78.830193,106.532433 77.333755,107.259834 75.176102,107.995560 
	C74.514854,107.991554 73.853607,107.987549 72.826363,107.311531 
	C68.713173,106.437744 64.599991,105.563965 59.746758,104.532974 
	C59.746758,111.306587 59.746758,116.507774 59.746758,122.459930 
	C63.830753,121.950653 67.864380,121.447655 72.649490,120.975739 
	C73.649773,121.027328 74.650055,121.078918 75.961708,121.214417 
	C75.961708,121.214417 75.853149,121.518074 76.150681,122.109383 
	C77.766823,122.067009 79.382965,122.024628 81.791115,121.963196 
	C82.316551,121.912590 82.841995,121.861984 83.927338,121.871658 
	C84.289070,121.971611 84.650795,122.071564 85.571640,122.656487 
	C87.711998,122.495705 89.852364,122.334923 92.657455,122.041183 
	C93.104973,122.085564 93.552498,122.129951 94.191376,122.459892 
	C94.458313,122.364700 94.725250,122.269508 95.442192,122.035759 
	C95.442192,122.035759 95.906555,121.957840 96.706566,121.982002 
	C97.506821,121.973320 98.307068,121.964630 99.736099,122.020683 
	C100.152382,122.075203 100.568665,122.129723 101.104080,122.790901 
	C103.058365,122.192085 105.012650,121.593262 107.554504,121.496872 
	C109.337753,121.643021 111.121002,121.789162 113.662575,122.048508 
	C115.566132,122.295334 117.968414,124.826927 119.267136,120.231888 
	C120.292923,118.485985 121.108040,116.821274 123.562027,118.939308 
	C125.477196,120.592270 127.897964,121.659424 130.447327,123.200432 
	C131.182983,120.504623 131.523041,119.258560 132.440826,117.807190 
	C132.981979,117.521431 133.523132,117.235680 133.998764,116.990265 
	C133.998764,116.990265 134.039093,116.924713 134.204346,117.398598 
	C134.463287,117.601250 134.722244,117.803902 135.003021,118.001495 
M22.064280,119.543930 
	C22.377548,119.693619 22.690817,119.843300 23.000076,120.000000 
	C23.000076,120.000000 23.007280,119.994347 23.493694,120.599037 
	C27.803621,122.108505 32.128677,123.945862 36.650574,119.594490 
	C37.459843,119.043770 38.269115,118.493050 39.004177,117.992134 
	C39.004177,117.992134 39.053806,117.917801 39.199699,118.382446 
	C39.371471,118.675133 39.616627,118.880043 40.309605,119.334236 
	C40.540688,119.577812 40.771767,119.821388 41.250027,120.492958 
	C41.471561,120.759384 41.753792,120.917488 42.557938,121.044174 
	C42.557938,121.044174 43.000031,121.196495 43.194176,121.480957 
	C43.462322,121.383530 43.730465,121.286095 44.737675,121.275597 
	C48.403332,120.387886 52.941818,120.481308 55.428890,118.268784 
	C57.096893,116.784889 56.998543,111.361961 55.578579,108.939430 
	C54.296463,106.752090 50.023575,105.038750 47.291897,105.314949 
	C44.121468,105.635506 39.382149,105.812225 38.123749,110.979530 
	C37.410789,109.975037 36.697830,108.970551 35.991447,107.539093 
	C35.991447,107.539093 35.953438,107.113808 35.896935,106.433937 
	C35.231525,105.968559 34.566116,105.503189 33.057335,105.044189 
	C29.137533,104.824013 25.338562,104.931763 22.251381,109.066872 
	C19.944838,112.320366 19.887718,115.629318 21.999924,119.000000 
	C21.999924,119.000000 22.007805,118.994766 22.064280,119.543930 
M34.178120,150.333771 
	C34.313362,150.634735 34.530506,150.854950 34.988049,151.434143 
	C34.988049,151.434143 35.044155,151.898178 35.006168,152.623993 
	C35.710804,154.734909 36.415440,156.845810 38.012760,159.009293 
	C40.945129,159.009293 43.877499,159.009293 47.491512,159.009293 
	C45.446304,154.107925 43.700504,149.924103 41.898773,145.606232 
	C43.285954,144.592865 45.151550,143.951706 45.548004,142.803345 
	C46.679817,139.524948 47.804329,136.025589 47.719849,132.643417 
	C47.681084,131.091537 44.889561,128.422409 43.203327,128.304443 
	C36.171066,127.812424 29.084450,128.097305 21.169498,128.097305 
	C21.169498,138.660995 21.169498,148.578812 21.169498,159.267059 
	C23.686449,158.903870 26.837557,158.449173 30.572718,157.451523 
	C32.350246,155.211136 28.433474,150.288010 34.037178,149.986969 
	C34.037178,149.986969 34.096664,149.868652 34.178120,150.333771 
M179.021942,106.885033 
	C179.060211,108.908501 179.098495,110.931976 179.004974,113.496613 
	C179.049088,113.676964 179.093185,113.857307 178.998871,114.937195 
	C178.998871,117.175461 178.998871,119.413727 178.998871,122.508705 
	C183.219620,121.961090 187.031647,121.466507 190.991547,120.328079 
	C190.943451,119.893394 190.895355,119.458702 190.638412,118.227707 
	C188.429276,118.184692 186.220139,118.141678 183.373917,117.404892 
	C184.083603,116.669388 184.670776,115.696999 185.530823,115.252205 
	C186.928574,114.529327 188.504913,114.151764 190.005875,113.628448 
	C188.585770,113.064804 187.121353,112.588943 185.762726,111.903458 
	C184.990326,111.513756 184.390915,110.781166 183.713608,110.202995 
	C186.111115,109.027786 188.052216,109.170593 189.952148,108.953293 
	C190.653641,108.873062 191.258163,107.944771 191.906921,107.403267 
	C191.243790,106.722824 190.576309,105.455002 189.918274,105.459892 
	C186.379044,105.486191 182.842178,105.828865 179.021942,106.885033 
M161.026138,106.935600 
	C161.026138,111.911560 161.026138,116.887520 161.026138,122.452637 
	C164.568207,121.972694 167.861801,121.526428 171.861664,121.033401 
	C177.850281,116.665924 178.749542,110.145714 172.972656,106.847061 
	C169.935867,105.113029 165.270248,106.231522 161.026138,106.935600 
M53.285404,151.783859 
	C56.593842,156.964630 61.727966,158.757004 67.467339,159.498978 
	C77.682381,160.819534 85.698769,154.853729 87.631691,144.437286 
	C89.139503,136.311768 83.563927,128.961761 73.850197,127.279243 
	C67.181091,126.124092 60.677490,127.205742 55.668938,132.464935 
	C50.418308,137.978317 51.312313,144.468765 53.285404,151.783859 
M122.975815,138.364929 
	C122.422241,145.094116 121.868660,151.823288 121.299583,158.740982 
	C124.525803,158.740982 127.596977,158.740982 130.687744,158.740982 
	C131.165131,154.428329 131.613708,150.376007 132.057007,146.371429 
	C136.287186,146.371429 140.015320,146.371429 144.118530,146.371429 
	C143.738251,150.659561 143.391769,154.566849 143.031998,158.623779 
	C146.510605,158.623779 149.692078,158.623779 153.436325,158.623779 
	C153.436325,148.205582 153.436325,138.186676 153.436325,128.257080 
	C150.327103,128.257080 147.398041,128.257080 143.890930,128.257080 
	C143.890930,131.917709 143.890930,135.316559 143.890930,138.578918 
	C139.589508,138.578918 135.890060,138.578918 131.969696,138.578918 
	C132.350037,134.919540 132.685074,131.695969 133.042175,128.259995 
	C129.497406,128.259995 126.440483,128.259995 122.976799,128.259995 
	C122.976799,131.489334 122.976799,134.449966 122.975815,138.364929 
M162.300247,143.736160 
	C159.786865,148.634872 157.273499,153.533585 154.334961,159.260941 
	C159.444580,158.120422 165.173981,161.853287 166.635529,154.587601 
	C167.886765,148.367371 172.702026,150.501587 176.522263,149.994186 
	C180.676666,149.442444 181.337448,152.768677 181.695221,155.187332 
	C182.196335,158.575180 183.754547,159.282181 186.673798,159.045868 
	C188.572510,158.892166 190.493774,159.016907 192.739853,159.016907 
	C189.373428,149.505936 186.293106,140.492279 182.921600,131.588867 
	C182.369812,130.131744 180.398926,128.040176 179.318085,128.171356 
	C175.851273,128.592072 171.452744,125.688431 168.987595,130.239410 
	C166.717316,134.430664 164.783630,138.804245 162.300247,143.736160 
M100.061790,144.384521 
	C101.235977,141.775864 101.749756,137.791016 103.721680,136.844727 
	C107.840561,134.868134 112.729111,134.495438 117.569695,133.403366 
	C117.543343,127.512123 117.175926,127.118790 110.482330,126.976776 
	C109.649994,126.959114 108.814034,126.924263 107.984787,126.976868 
	C90.860008,128.063217 87.210365,143.053741 93.164871,152.873779 
	C97.087975,159.343689 104.202698,160.070282 111.258171,159.227814 
	C116.970833,158.545715 117.650742,157.423752 116.303284,151.608734 
	C104.372192,152.990158 102.934090,152.418381 100.061790,144.384521 
z"/>
<path fill="#FBCD0D" opacity="1.000000" stroke="none" 
	d="
M144.951721,37.019363 
	C145.089279,37.591724 145.226837,38.164082 145.654053,39.228790 
	C146.594208,40.856018 147.244675,41.990887 147.895142,43.125755 
	C147.895142,43.125759 147.928452,43.010849 147.906418,43.436470 
	C148.921356,46.907501 149.958313,49.952911 150.995270,52.998322 
	C151.000626,53.456623 151.005981,53.914917 151.045746,55.112633 
	C151.069641,60.729031 151.059128,65.606010 150.667969,70.642136 
	C143.601593,70.283379 136.852051,70.165916 130.251526,69.113632 
	C125.462021,68.350060 120.869835,66.348816 116.055176,64.672363 
	C115.599686,64.343803 115.278679,64.242302 114.946404,64.092285 
	C114.935135,64.043762 114.844872,64.085938 114.651268,63.798561 
	C112.658768,63.004257 110.859871,62.497326 109.044128,61.962791 
	C109.027283,61.935181 108.964058,61.948807 108.801231,61.713322 
	C108.098991,61.373741 107.559586,61.269642 106.794937,61.076553 
	C106.569702,60.987560 106.086884,60.948967 105.883461,60.669548 
	C104.791969,60.279667 103.903908,60.169201 102.988976,60.017776 
	C102.962112,59.976810 102.877892,60.026882 102.640106,59.775963 
	C101.272774,59.324360 100.143227,59.123680 98.879875,58.832489 
	C98.746063,58.741978 98.425522,58.782558 98.119492,58.505814 
	C89.946709,57.437920 82.094017,56.321964 74.207794,55.980820 
	C69.678802,55.784908 65.095459,56.845348 60.389339,56.944740 
	C60.416286,54.376118 60.590473,52.202969 60.764664,50.029816 
	C60.844826,49.577049 60.924988,49.124279 61.238647,48.141262 
	C61.740303,46.813744 62.008453,46.016479 62.276604,45.219215 
	C62.276608,45.219215 62.264771,45.148956 62.505764,44.955280 
	C63.861870,42.192600 64.976982,39.623596 66.092094,37.054592 
	C66.092094,37.054592 66.021217,36.999851 66.339508,36.885212 
	C68.796753,33.867222 70.935707,30.963871 73.074661,28.060522 
	C73.074661,28.060522 73.011681,28.002697 73.288193,27.969067 
	C73.755165,27.640079 73.945633,27.344723 74.136101,27.049362 
	C74.483261,27.066221 74.750992,26.928574 75.348442,26.346336 
	C81.539429,22.731215 87.321266,19.406178 93.103096,16.081142 
	C93.103096,16.081144 93.005386,16.049944 93.459564,16.098011 
	C96.926712,15.692610 99.939667,15.239142 102.952629,14.785674 
	C104.051613,14.843370 105.150589,14.901068 107.062202,14.952913 
	C112.916908,15.965313 117.958984,16.983564 123.001060,18.001816 
	C123.470276,18.317463 123.939491,18.633104 124.876549,19.260685 
	C128.093185,21.175806 130.841995,22.778986 133.590790,24.382164 
	C133.590790,24.382162 133.864609,24.120443 133.835663,24.560604 
	C134.514267,25.372326 135.221817,25.743885 135.929382,26.115444 
	C135.929382,26.115442 135.975098,26.027153 135.986969,26.373867 
	C136.981415,27.509363 137.964020,28.298147 138.946609,29.086933 
	C138.946609,29.086933 138.988541,29.009720 138.995667,29.357811 
	C139.998230,30.810032 140.993683,31.914162 141.989151,33.018288 
	C141.989151,33.018288 141.999847,32.998951 142.048004,33.320908 
	C143.048019,34.768364 143.999878,35.893864 144.951721,37.019363 
z"/>
<path fill="#075280" opacity="1.000000" stroke="none" 
	d="
M163.110214,83.042465 
	C163.885803,82.687447 164.661407,82.332428 165.977676,81.891266 
	C166.808716,81.624298 166.980133,81.364868 167.032593,81.026825 
	C169.154465,79.731178 171.276337,78.435532 173.963013,77.011597 
	C174.691116,76.599838 174.854416,76.316376 175.017715,76.032913 
	C175.017715,76.032913 175.004562,76.005127 175.219818,75.981735 
	C175.435089,75.958336 175.839523,75.913216 176.091431,75.836258 
	C176.557220,75.489822 176.771103,75.220345 176.984985,74.950882 
	C176.985001,74.950882 176.996140,75.003082 177.286499,74.971359 
	C178.011856,74.555275 178.446838,74.170906 178.905090,73.593826 
	C178.928345,73.401115 178.994186,73.018509 178.994186,73.018509 
	C178.994186,73.018509 179.006180,73.007706 179.274109,72.960060 
	C179.703110,72.613411 179.864197,72.314400 180.025284,72.015396 
	C180.025284,72.015396 179.997955,72.001366 180.250900,71.930481 
	C180.693130,71.583488 180.882416,71.307381 181.071686,71.031273 
	C182.644989,69.590660 184.218307,68.150047 186.193924,66.315659 
	C187.048019,65.570023 187.499802,65.218147 187.964325,65.263580 
	C187.991226,66.720764 188.005402,67.780655 187.725006,68.976700 
	C187.271011,69.721306 187.111572,70.329750 186.952148,70.938202 
	C186.952148,70.938202 186.992508,70.988655 186.663574,71.091194 
	C185.870148,72.111664 185.405670,73.029594 184.941193,73.947525 
	C184.656982,74.125214 184.372757,74.302895 183.770401,74.814865 
	C183.266632,75.446091 183.081024,75.743034 182.666916,76.208221 
	C182.287003,76.910240 182.135590,77.444008 181.984177,77.977783 
	C181.984177,77.977783 182.002136,77.996361 181.766922,78.115845 
	C181.365295,78.525200 181.198883,78.815071 181.032471,79.104942 
	C180.582504,79.685936 180.132553,80.266937 179.168274,81.046524 
	C178.460129,81.541466 178.266296,81.837822 178.072479,82.134171 
	C178.072464,82.134163 178.053024,82.048737 177.841339,82.148758 
	C177.443069,82.542770 177.256516,82.836754 177.069946,83.130737 
	C177.069946,83.130737 177.046310,83.047943 176.838898,83.144829 
	C176.431030,83.522377 176.230576,83.803040 176.030106,84.083694 
	C175.939560,84.394424 175.762466,84.643661 175.048309,85.029968 
	C174.411102,85.512085 174.224426,85.795639 174.037750,86.079193 
	C174.037735,86.079185 174.013138,86.004944 173.720169,86.040909 
	C173.047363,86.515648 172.667511,86.954430 172.287674,87.393211 
	C172.287674,87.393211 172.206146,87.268394 171.989944,87.294571 
	C171.538162,87.599831 171.302582,87.878922 171.067001,88.158012 
	C171.045944,88.487602 170.899231,88.745804 170.152924,89.079102 
	C169.457413,89.495895 169.235840,89.766212 169.014267,90.036530 
	C169.014267,90.036530 169.010941,89.993538 168.714966,90.014755 
	C167.967392,90.404015 167.515778,90.772057 167.064163,91.140091 
	C167.064163,91.140091 167.049713,91.056335 166.843262,91.141632 
	C166.428848,91.494263 166.220901,91.761589 166.012939,92.028908 
	C166.012939,92.028908 166.005524,91.995590 165.708420,92.018036 
	C164.966568,92.411819 164.521835,92.783157 164.077087,93.154495 
	C159.257446,95.342781 154.437805,97.531067 148.889496,99.873253 
	C145.119064,100.450272 142.077301,100.873390 139.035522,101.296494 
	C136.979187,101.276749 134.922836,101.257004 132.187714,101.161194 
	C131.341492,101.121910 131.174072,101.158691 131.006638,101.195480 
	C129.262054,101.136040 127.517464,101.076599 125.130676,100.779587 
	C123.667824,100.416473 122.847168,100.290939 122.026520,100.165413 
	C120.637718,99.772240 119.248917,99.379066 117.394012,98.722755 
	C116.621094,98.369965 116.314270,98.280304 116.007446,98.190643 
	C115.848373,98.140106 115.689301,98.089569 115.189278,97.785896 
	C114.654114,97.190399 114.375725,97.095863 114.013153,97.249138 
	C113.590347,97.167702 113.167549,97.086273 112.328125,96.737091 
	C111.610909,96.376671 111.310326,96.284012 111.009735,96.191345 
	C111.009735,96.191345 110.564285,96.028542 110.190208,95.676331 
	C108.543114,94.929939 107.270096,94.535767 105.997078,94.141586 
	C105.997078,94.141586 105.600586,93.959877 105.222519,93.634018 
	C103.561287,92.875122 102.278130,92.442093 100.994972,92.009064 
	C100.994972,92.009064 100.999695,91.999695 100.806122,91.735085 
	C99.406601,91.037582 98.200653,90.604683 96.994705,90.171791 
	C96.822754,90.119537 96.650803,90.067291 95.989990,89.748093 
	C93.999268,89.045616 92.497414,88.610077 90.995560,88.174545 
	C90.995560,88.174545 90.554581,88.014519 90.147659,87.672768 
	C88.159248,86.946114 86.577759,86.561211 84.996262,86.176308 
	C79.551559,84.875282 74.106865,83.574249 68.007278,81.807373 
	C59.917294,81.518341 52.482197,81.695160 45.047096,81.871986 
	C39.473400,83.308159 33.948437,85.122040 28.052706,84.551331 
	C37.019829,77.475899 47.429825,74.815094 58.575802,73.016235 
	C58.999199,73.027435 58.934612,73.016312 59.004639,73.266808 
	C59.374252,73.620613 59.673840,73.723930 60.440422,73.886337 
	C68.851860,74.014450 76.796303,74.083473 85.039246,74.412308 
	C95.043770,77.845879 104.854774,80.735596 114.426353,84.273140 
	C124.036064,87.824760 133.606720,90.966942 144.432678,89.847702 
	C148.245468,88.618683 151.670959,87.332268 155.096436,86.045853 
	C155.096436,86.045853 155.573975,86.002098 156.116333,85.982544 
	C157.175034,85.671890 157.691376,85.380806 158.207733,85.089722 
	C159.258972,84.731071 160.310196,84.372421 161.948730,83.950256 
	C162.727432,83.605316 162.918823,83.323883 163.110214,83.042465 
z"/>
<path fill="#22A358" opacity="1.000000" stroke="none" 
	d="
M98.425522,58.782558 
	C98.425522,58.782558 98.746063,58.741978 99.085808,59.121246 
	C100.576332,59.675972 101.727112,59.851429 102.877892,60.026882 
	C102.877892,60.026882 102.962112,59.976810 103.193939,60.289619 
	C104.312813,60.717941 105.199844,60.833454 106.086884,60.948967 
	C106.086884,60.948967 106.569702,60.987560 106.962692,61.303772 
	C107.891800,61.729595 108.427933,61.839203 108.964058,61.948807 
	C108.964058,61.948807 109.027283,61.935181 109.184601,62.296761 
	C111.176239,63.134205 113.010559,63.610069 114.844872,64.085938 
	C114.844872,64.085938 114.935135,64.043762 115.083099,64.312515 
	C115.550591,64.687317 115.870125,64.793373 116.189659,64.899437 
	C120.869835,66.348816 125.462021,68.350060 130.251526,69.113632 
	C136.852051,70.165916 143.601593,70.283379 151.072357,70.556702 
	C154.563263,69.544632 157.269150,68.777138 159.975021,68.009644 
	C159.975021,68.009651 160.004028,68.014160 160.385742,67.970551 
	C166.472351,65.545425 172.942062,64.541176 176.880737,58.979069 
	C177.207962,58.842243 177.535172,58.705421 178.298569,58.261459 
	C179.433121,57.822578 180.131485,57.690842 180.829865,57.559105 
	C180.654388,58.443966 180.771011,59.588047 180.254425,60.170193 
	C177.584335,63.179066 174.752167,66.044121 171.976517,68.959335 
	C171.692078,69.128937 171.407639,69.298546 170.695892,69.740189 
	C169.469376,70.987022 168.670166,71.961815 167.870972,72.936615 
	C167.870972,72.936615 167.408737,72.990700 166.938965,73.056534 
	C166.290985,73.400063 166.112778,73.677757 165.934570,73.955460 
	C165.934555,73.955452 165.996490,73.995888 165.696411,74.031883 
	C165.125351,74.327072 164.854385,74.586266 164.583435,74.845459 
	C164.583435,74.845467 164.231049,74.852234 163.825989,74.973984 
	C163.170456,75.348465 162.919968,75.601181 162.669495,75.853905 
	C162.669495,75.853905 162.274338,75.875526 161.860382,75.993721 
	C161.241730,76.379440 161.037018,76.646965 160.832291,76.914490 
	C160.411423,76.950104 159.990555,76.985725 159.025299,77.099442 
	C158.150665,77.327934 157.965378,77.583450 157.925018,77.944084 
	C157.925018,77.944084 157.997009,77.996719 157.583374,77.994286 
	C153.959961,78.968880 150.750183,79.945908 147.100800,80.909973 
	C132.185455,82.185234 118.560219,79.459229 105.519508,72.943466 
	C96.350723,68.362305 86.658112,65.116447 75.885078,64.535721 
	C70.045937,64.234001 64.552246,64.188751 59.058552,64.143494 
	C58.875282,64.115540 58.692017,64.087593 57.987831,63.746147 
	C53.644241,64.290985 49.821564,65.149330 45.998890,66.007675 
	C45.998890,66.007675 45.793682,66.226631 45.244835,66.155479 
	C43.786186,65.372810 42.876377,64.661293 41.966572,63.949780 
	C41.966572,63.949780 41.991005,64.004868 42.264351,63.994682 
	C43.025688,63.701271 43.513683,63.418049 44.001682,63.134827 
	C45.968258,62.375450 47.934834,61.616070 50.610062,60.871452 
	C52.163834,60.629158 53.008945,60.372097 53.936562,60.013107 
	C54.019062,59.911179 54.279655,59.940762 54.520966,59.932808 
	C55.152245,59.667099 55.542221,59.409344 55.932198,59.151581 
	C55.932194,59.151581 55.949265,58.975189 56.249725,58.949905 
	C56.941513,58.889732 57.332836,58.854847 58.170425,58.878754 
	C66.000282,58.307301 73.378990,57.265270 80.769020,57.177513 
	C86.647339,57.107708 92.539505,58.203976 98.425522,58.782558 
z"/>
<path fill="#22A263" opacity="1.000000" stroke="none" 
	d="
M53.133739,151.406952 
	C51.312313,144.468765 50.418308,137.978317 55.668938,132.464935 
	C60.677490,127.205742 67.181091,126.124092 73.850197,127.279243 
	C83.563927,128.961761 89.139503,136.311768 87.631691,144.437286 
	C85.698769,154.853729 77.682381,160.819534 67.467339,159.498978 
	C61.727966,158.757004 56.593842,156.964630 53.133739,151.406952 
M62.476002,138.195801 
	C62.190018,141.178070 61.081001,144.379074 61.802391,147.093643 
	C63.019352,151.673004 67.118736,152.582352 71.404037,151.922592 
	C75.707901,151.259979 77.332191,147.883636 77.859566,144.202866 
	C78.420517,140.287735 77.633797,136.496353 73.369843,134.756317 
	C69.269104,133.082886 65.644478,133.739624 62.476002,138.195801 
z"/>
<path fill="#21A162" opacity="1.000000" stroke="none" 
	d="
M122.976303,137.887772 
	C122.976799,134.449966 122.976799,131.489334 122.976799,128.259995 
	C126.440483,128.259995 129.497406,128.259995 133.042175,128.259995 
	C132.685074,131.695969 132.350037,134.919540 131.969696,138.578918 
	C135.890060,138.578918 139.589508,138.578918 143.890930,138.578918 
	C143.890930,135.316559 143.890930,131.917709 143.890930,128.257080 
	C147.398041,128.257080 150.327103,128.257080 153.436325,128.257080 
	C153.436325,138.186676 153.436325,148.205582 153.436325,158.623779 
	C149.692078,158.623779 146.510605,158.623779 143.031998,158.623779 
	C143.391769,154.566849 143.738251,150.659561 144.118530,146.371429 
	C140.015320,146.371429 136.287186,146.371429 132.057007,146.371429 
	C131.613708,150.376007 131.165131,154.428329 130.687744,158.740982 
	C127.596977,158.740982 124.525803,158.740982 121.299583,158.740982 
	C121.868660,151.823288 122.422241,145.094116 122.976303,137.887772 
z"/>
<path fill="#F2CE19" opacity="1.000000" stroke="none" 
	d="
M76.230530,64.792191 
	C86.658112,65.116447 96.350723,68.362305 105.519508,72.943466 
	C118.560219,79.459229 132.185455,82.185234 147.128815,81.224228 
	C147.485535,82.374115 147.374603,83.196777 147.263672,84.019447 
	C147.190323,84.172424 147.116959,84.325394 146.784088,84.806633 
	C146.213348,85.332016 146.082214,85.613129 146.131195,85.978233 
	C146.131195,85.978233 145.825150,86.198608 145.534409,86.582123 
	C144.844223,87.907196 144.444778,88.848747 144.045349,89.790298 
	C133.606720,90.966942 124.036064,87.824760 114.426353,84.273140 
	C104.854774,80.735596 95.043770,77.845879 84.891647,74.070999 
	C77.754021,72.992249 71.067871,72.390343 64.368225,72.099442 
	C61.765743,71.986443 60.937763,71.011787 60.933506,68.529312 
	C60.929253,66.046104 61.736538,64.918442 64.360748,64.970848 
	C68.314575,65.049812 72.273674,64.864922 76.230530,64.792191 
z"/>
<path fill="#24A264" opacity="1.000000" stroke="none" 
	d="
M29.988663,157.994461 
	C26.837557,158.449173 23.686449,158.903870 21.169498,159.267059 
	C21.169498,148.578812 21.169498,138.660995 21.169498,128.097305 
	C29.084450,128.097305 36.171066,127.812424 43.203327,128.304443 
	C44.889561,128.422409 47.681084,131.091537 47.719849,132.643417 
	C47.804329,136.025589 46.679817,139.524948 45.548004,142.803345 
	C45.151550,143.951706 43.285954,144.592865 41.898773,145.606232 
	C43.700504,149.924103 45.446304,154.107925 47.491512,159.009293 
	C43.877499,159.009293 40.945129,159.009293 37.518421,158.600113 
	C36.364105,156.093353 35.704132,153.995758 35.044155,151.898178 
	C35.044155,151.898178 34.988049,151.434143 34.943863,150.953918 
	C34.632004,150.272018 34.364334,150.070343 34.096664,149.868652 
	C34.096664,149.868652 34.037178,149.986969 34.051762,149.545837 
	C33.440399,146.587982 32.814453,144.071243 32.170494,141.482086 
	C34.966763,140.578903 40.096634,142.198654 38.804562,136.890366 
	C38.383083,135.158783 34.271366,134.325455 31.847389,133.081299 
	C31.227814,133.517868 30.608238,133.954422 29.988663,134.390991 
	C29.988663,142.258804 29.988663,150.126633 29.988663,157.994461 
z"/>
<path fill="#22A264" opacity="1.000000" stroke="none" 
	d="
M162.500961,143.416840 
	C164.783630,138.804245 166.717316,134.430664 168.987595,130.239410 
	C171.452744,125.688431 175.851273,128.592072 179.318085,128.171356 
	C180.398926,128.040176 182.369812,130.131744 182.921600,131.588867 
	C186.293106,140.492279 189.373428,149.505936 192.739853,159.016907 
	C190.493774,159.016907 188.572510,158.892166 186.673798,159.045868 
	C183.754547,159.282181 182.196335,158.575180 181.695221,155.187332 
	C181.337448,152.768677 180.676666,149.442444 176.522263,149.994186 
	C172.702026,150.501587 167.886765,148.367371 166.635529,154.587601 
	C165.173981,161.853287 159.444580,158.120422 154.334961,159.260941 
	C157.273499,153.533585 159.786865,148.634872 162.500961,143.416840 
M173.054672,142.920471 
	C174.630386,142.920471 176.206100,142.920471 178.158997,142.920471 
	C177.257568,140.062256 176.537628,137.779465 175.402100,134.179001 
	C174.059143,137.868912 173.196014,140.240417 173.054672,142.920471 
z"/>
<path fill="#24A265" opacity="1.000000" stroke="none" 
	d="
M100.088707,144.778595 
	C102.934090,152.418381 104.372192,152.990158 116.303284,151.608734 
	C117.650742,157.423752 116.970833,158.545715 111.258171,159.227814 
	C104.202698,160.070282 97.087975,159.343689 93.164871,152.873779 
	C87.210365,143.053741 90.860008,128.063217 107.984787,126.976868 
	C108.814034,126.924263 109.649994,126.959114 110.482330,126.976776 
	C117.175926,127.118790 117.543343,127.512123 117.569695,133.403366 
	C112.729111,134.495438 107.840561,134.868134 103.721680,136.844727 
	C101.749756,137.791016 101.235977,141.775864 100.088707,144.778595 
z"/>
<path fill="#15557E" opacity="1.000000" stroke="none" 
	d="
M131.863083,118.012489 
	C131.523041,119.258560 131.182983,120.504623 130.447327,123.200432 
	C127.897964,121.659424 125.477196,120.592270 123.562027,118.939308 
	C121.108040,116.821274 120.292923,118.485985 118.700310,120.613220 
	C116.038376,121.225464 114.864937,121.034203 115.305939,118.190964 
	C115.874924,114.522621 115.683784,110.736389 115.819992,107.000923 
	C118.327637,104.209427 120.694595,104.488869 123.046135,107.919472 
	C123.420776,108.694641 123.693604,108.877632 123.966431,109.060623 
	C123.966431,109.060616 124.001656,109.005531 124.086243,109.368546 
	C125.106606,111.216873 126.042366,112.702194 126.978134,114.187508 
	C127.257324,114.049171 127.536522,113.910828 127.815720,113.772491 
	C127.815720,111.852142 127.815720,109.931793 127.815720,108.011444 
	C128.173737,104.664818 129.798355,104.563492 132.109772,107.114136 
	C132.001862,111.276016 131.932480,114.644257 131.863083,118.012489 
z"/>
<path fill="#14537C" opacity="1.000000" stroke="none" 
	d="
M71.898010,120.944656 
	C67.864380,121.447655 63.830753,121.950653 59.746758,122.459930 
	C59.746758,116.507774 59.746758,111.306587 59.746758,104.532974 
	C64.599991,105.563965 68.713173,106.437744 72.955620,108.025299 
	C72.721786,110.538208 71.435730,113.056465 72.170845,113.999954 
	C74.270920,116.695312 73.344513,118.695534 71.898010,120.944656 
z"/>
<path fill="#10537F" opacity="1.000000" stroke="none" 
	d="
M38.848331,110.995377 
	C39.382149,105.812225 44.121468,105.635506 47.291897,105.314949 
	C50.023575,105.038750 54.296463,106.752090 55.578579,108.939430 
	C56.998543,111.361961 57.096893,116.784889 55.428890,118.268784 
	C52.941818,120.481308 48.403332,120.387886 44.117996,121.175095 
	C43.332218,121.115227 43.166122,121.155861 43.000031,121.196495 
	C43.000031,121.196495 42.557938,121.044174 42.237667,120.754120 
	C41.612549,120.331032 41.307697,120.197998 41.002846,120.064964 
	C40.771767,119.821388 40.540688,119.577812 40.112648,118.902176 
	C39.628399,118.286011 39.341103,118.101906 39.053806,117.917801 
	C39.053806,117.917801 39.004177,117.992134 39.012764,117.533890 
	C38.963680,115.048897 38.906006,113.022133 38.848331,110.995377 
M44.962933,116.586525 
	C46.729790,116.688416 49.823307,117.315300 50.027679,116.798859 
	C50.801620,114.843124 50.864506,112.496033 50.666183,110.343925 
	C50.617447,109.815102 48.131748,108.789490 47.534714,109.176743 
	C46.117100,110.096283 44.970310,111.616028 44.104088,113.118126 
	C43.727871,113.770515 44.311275,114.976295 44.962933,116.586525 
z"/>
<path fill="#0F537F" opacity="1.000000" stroke="none" 
	d="
M138.103348,107.040413 
	C141.257111,103.658920 144.855225,104.576546 148.255829,106.313324 
	C151.576080,108.009071 153.719223,110.885262 152.809494,114.769974 
	C151.888626,118.702286 149.289566,121.421188 145.062332,121.981087 
	C143.436325,122.196449 141.752884,121.978195 139.559204,121.668060 
	C138.683395,121.273926 138.344009,121.169250 138.004608,121.064575 
	C137.341888,120.553688 136.679184,120.042793 135.871216,119.028999 
	C135.558502,118.245186 135.313614,118.077003 134.991302,118.021545 
	C134.991302,118.021545 135.003021,118.001495 134.947815,117.744484 
	C134.608109,117.299889 134.323608,117.112305 134.039093,116.924713 
	C134.039093,116.924713 133.998764,116.990265 134.002258,116.558571 
	C133.483459,112.246582 135.282944,109.413307 138.103348,107.040413 
M141.635162,118.903023 
	C145.083511,118.057793 148.693634,116.996902 147.759171,112.432281 
	C146.901779,108.244118 143.476669,108.676903 138.778961,109.610611 
	C139.544403,112.640167 140.276367,115.537216 141.635162,118.903023 
z"/>
<path fill="#115584" opacity="1.000000" stroke="none" 
	d="
M161.340149,106.061935 
	C165.270248,106.231522 169.935867,105.113029 172.972656,106.847061 
	C178.749542,110.145714 177.850281,116.665924 171.044449,121.031769 
	C169.399399,121.019867 168.554413,120.896111 167.746582,121.018166 
	C163.269669,121.694565 161.441986,120.041977 161.894867,115.339096 
	C162.188217,112.292770 161.557053,109.157402 161.340149,106.061935 
M166.509644,109.173195 
	C166.128815,111.920059 165.747986,114.666916 165.363815,117.437958 
	C169.109695,118.972382 171.023239,117.379753 171.565125,114.060455 
	C172.061920,111.017380 170.951508,108.855865 166.509644,109.173195 
z"/>
<path fill="#125480" opacity="1.000000" stroke="none" 
	d="
M100.984940,122.184235 
	C100.568665,122.129723 100.152382,122.075203 99.376373,121.532379 
	C99.490936,115.755417 99.965233,110.466751 100.439529,105.178085 
	C104.367508,105.705307 108.295486,106.232529 112.613892,107.316284 
	C112.368179,110.400536 111.732048,112.928261 111.095924,115.455986 
	C110.811317,115.383896 110.526711,115.311798 110.242104,115.239708 
	C111.129486,117.471573 112.016869,119.703445 112.904251,121.935310 
	C111.121002,121.789162 109.337753,121.643021 107.284210,120.907425 
	C106.791443,119.491219 106.568970,118.664459 106.248741,117.467270 
	C105.885483,115.724030 105.619972,114.351212 105.468681,113.568954 
	C106.801193,112.335114 107.865692,111.349434 108.930199,110.363754 
	C108.182266,109.912788 107.287895,108.952881 106.716980,109.117149 
	C105.539955,109.455826 103.675781,110.324486 103.612732,111.098763 
	C103.371895,114.056038 103.733826,117.062416 103.813522,120.367432 
	C102.832581,121.184341 101.908760,121.684288 100.984940,122.184235 
z"/>
<path fill="#185984" opacity="1.000000" stroke="none" 
	d="
M84.757408,105.373848 
	C88.420486,105.353836 92.083565,105.333824 96.291458,105.655548 
	C97.734932,109.103127 95.790947,109.010193 93.623734,109.066986 
	C92.032967,109.108681 90.455902,109.673424 88.872734,110.005058 
	C88.984894,110.556419 89.097054,111.107773 89.209221,111.659134 
	C91.378334,111.886147 93.547455,112.113159 95.716576,112.340172 
	C95.816101,112.822052 95.915627,113.303932 96.015152,113.785812 
	C94.629112,114.222404 93.123337,114.450600 91.892708,115.157677 
	C90.792755,115.789665 89.996407,116.950066 89.294411,118.192398 
	C91.656990,118.680992 93.791252,118.854485 95.991653,119.348961 
	C95.993187,120.100327 95.928581,120.530716 95.411301,120.967957 
	C85.931053,121.041962 85.938568,121.041061 84.901009,112.350685 
	C84.847221,111.900185 84.482231,111.486832 84.208145,110.646179 
	C84.355240,108.615395 84.556328,106.994621 84.757408,105.373848 
z"/>
<path fill="#155883" opacity="1.000000" stroke="none" 
	d="
M179.137283,114.037651 
	C179.093185,113.857307 179.049088,113.676964 179.321472,112.962036 
	C179.526825,110.305748 179.415665,108.184044 179.304489,106.062332 
	C182.842178,105.828865 186.379044,105.486191 189.918274,105.459892 
	C190.576309,105.455002 191.243790,106.722824 191.906921,107.403267 
	C191.258163,107.944771 190.653641,108.873062 189.952148,108.953293 
	C188.052216,109.170593 186.111115,109.027786 183.713608,110.202995 
	C184.390915,110.781166 184.990326,111.513756 185.762726,111.903458 
	C187.121353,112.588943 188.585770,113.064804 190.005875,113.628448 
	C188.504913,114.151764 186.928574,114.529327 185.530823,115.252205 
	C184.670776,115.696999 184.083603,116.669388 183.966965,118.018524 
	C186.655762,118.762779 188.751495,118.893402 190.847244,119.024017 
	C190.895355,119.458702 190.943451,119.893394 190.466919,120.654587 
	C181.294876,121.011055 181.294876,121.011055 179.137283,114.037651 
z"/>
<path fill="#E7FEF6" opacity="1.000000" stroke="none" 
	d="
M30.280689,157.722992 
	C29.988663,150.126633 29.988663,142.258804 29.988663,134.390991 
	C30.608238,133.954422 31.227814,133.517868 31.847389,133.081299 
	C34.271366,134.325455 38.383083,135.158783 38.804562,136.890366 
	C40.096634,142.198654 34.966763,140.578903 32.170494,141.482086 
	C32.814453,144.071243 33.440399,146.587982 34.099522,149.499985 
	C28.433474,150.288010 32.350246,155.211136 30.280689,157.722992 
z"/>
<path fill="#E9F9FC" opacity="1.000000" stroke="none" 
	d="
M89.066093,117.877312 
	C89.996407,116.950066 90.792755,115.789665 91.892708,115.157677 
	C93.123337,114.450600 94.629112,114.222404 96.015152,113.785812 
	C95.915627,113.303932 95.816101,112.822052 95.716576,112.340172 
	C93.547455,112.113159 91.378334,111.886147 89.209221,111.659134 
	C89.097054,111.107773 88.984894,110.556419 88.872734,110.005058 
	C90.455902,109.673424 92.032967,109.108681 93.623734,109.066986 
	C95.790947,109.010193 97.734932,109.103127 96.717957,105.585419 
	C97.560295,105.139053 98.520958,105.104561 99.960571,105.124077 
	C99.965233,110.466751 99.490936,115.755417 99.061981,121.500008 
	C98.307068,121.964630 97.506821,121.973320 96.344666,121.718681 
	C95.943176,121.290611 95.903580,121.125862 95.863983,120.961105 
	C95.928581,120.530716 95.993187,120.100327 95.868668,118.955627 
	C93.475060,118.119972 91.270576,117.998642 89.066093,117.877312 
z"/>
<path fill="#E8FAFC" opacity="1.000000" stroke="none" 
	d="
M38.486038,110.987457 
	C38.906006,113.022133 38.963680,115.048897 39.049870,117.508987 
	C38.269115,118.493050 37.459843,119.043770 36.348698,119.399551 
	C36.184921,117.274094 36.323017,115.343567 36.472038,113.260376 
	C34.310020,113.260376 32.256466,113.260376 29.820599,113.260376 
	C30.624935,114.939201 31.249693,116.243210 32.004738,117.819160 
	C29.688362,117.819160 27.891062,117.819160 26.070204,117.605316 
	C26.046646,117.391479 25.874966,116.996941 25.906342,116.676239 
	C25.691051,116.020889 25.444387,115.686249 25.252956,115.130997 
	C25.262335,114.609856 25.189377,114.316055 25.300102,113.781616 
	C25.719707,112.702896 25.928524,111.871529 26.468994,110.867569 
	C29.862055,109.785332 32.923462,108.875694 35.984871,107.966057 
	C36.697830,108.970551 37.410789,109.975037 38.486038,110.987457 
z"/>
<path fill="#D6D150" opacity="1.000000" stroke="none" 
	d="
M75.885078,64.535721 
	C72.273674,64.864922 68.314575,65.049812 64.360748,64.970848 
	C61.736538,64.918442 60.929253,66.046104 60.933506,68.529312 
	C60.937763,71.011787 61.765743,71.986443 64.368225,72.099442 
	C71.067871,72.390343 77.754021,72.992249 84.593155,73.811195 
	C76.796303,74.083473 68.851860,74.014450 60.363914,73.633347 
	C59.525146,73.219620 59.229881,73.117966 58.934612,73.016312 
	C58.934612,73.016312 58.999199,73.027435 58.985149,73.057091 
	C59.025848,70.400200 59.080601,67.713654 59.096951,64.585297 
	C64.552246,64.188751 70.045937,64.234001 75.885078,64.535721 
z"/>
<path fill="#0A5282" opacity="1.000000" stroke="none" 
	d="
M25.874966,116.996941 
	C25.874966,116.996941 26.046646,117.391479 26.001730,117.962433 
	C24.973637,119.020378 23.990458,119.507362 23.007280,119.994347 
	C23.007280,119.994347 23.000076,120.000000 22.896362,119.776299 
	C22.594147,119.277870 22.332533,119.091927 22.007805,118.994766 
	C22.007805,118.994766 21.999924,119.000000 22.005272,118.552475 
	C22.313061,114.996712 22.615498,111.888481 22.917934,108.780243 
	C25.338562,104.931763 29.137533,104.824013 33.610317,105.332024 
	C34.760014,106.117844 35.356724,106.615822 35.953438,107.113808 
	C35.953438,107.113808 35.991447,107.539093 35.988159,107.752579 
	C32.923462,108.875694 29.862055,109.785332 26.174896,110.974976 
	C25.395870,112.179649 25.242592,113.104309 25.089314,114.028976 
	C25.189377,114.316055 25.262335,114.609856 25.252747,115.446136 
	C25.423193,116.320229 25.649078,116.658585 25.874966,116.996941 
z"/>
<path fill="#19557D" opacity="1.000000" stroke="none" 
	d="
M23.250488,120.296692 
	C23.990458,119.507362 24.973637,119.020378 26.025288,118.176277 
	C27.891062,117.819160 29.688362,117.819160 32.004738,117.819160 
	C31.249693,116.243210 30.624935,114.939201 29.820599,113.260376 
	C32.256466,113.260376 34.310020,113.260376 36.472038,113.260376 
	C36.323017,115.343567 36.184921,117.274094 36.117195,119.609039 
	C32.128677,123.945862 27.803621,122.108505 23.250488,120.296692 
z"/>
<path fill="#085080" opacity="1.000000" stroke="none" 
	d="
M75.837326,107.987244 
	C77.333755,107.259834 78.830193,106.532433 80.772232,106.137321 
	C81.126259,111.263260 81.034683,116.056915 80.516815,120.906998 
	C78.678062,121.148315 77.265602,121.333191 75.853149,121.518066 
	C75.853149,121.518074 75.961708,121.214417 75.927811,120.712906 
	C75.875053,116.136681 75.856194,112.061966 75.837326,107.987244 
z"/>
<path fill="#EBFBFD" opacity="1.000000" stroke="none" 
	d="
M113.283417,121.991913 
	C112.016869,119.703445 111.129486,117.471573 110.242104,115.239708 
	C110.526711,115.311798 110.811317,115.383896 111.095924,115.455986 
	C111.732048,112.928261 112.368179,110.400536 112.962112,107.461807 
	C113.644760,107.034256 114.369598,107.017700 115.457214,107.001030 
	C115.683784,110.736389 115.874924,114.522621 115.305939,118.190964 
	C114.864937,121.034203 116.038376,121.225464 118.546356,120.943451 
	C117.968414,124.826927 115.566132,122.295334 113.283417,121.991913 
z"/>
<path fill="#F4FDEE" opacity="1.000000" stroke="none" 
	d="
M172.342590,68.975960 
	C174.752167,66.044121 177.584335,63.179066 180.254425,60.170193 
	C180.771011,59.588047 180.654388,58.443966 180.829865,57.559105 
	C180.131485,57.690842 179.433121,57.822578 178.386719,57.998230 
	C178.359589,54.993679 179.937531,53.318653 183.045441,53.166592 
	C184.920990,59.091259 180.143967,66.250221 172.342590,68.975960 
z"/>
<path fill="#E6F7FA" opacity="1.000000" stroke="none" 
	d="
M80.943108,120.850563 
	C81.034683,116.056915 81.126259,111.263260 81.188789,106.036301 
	C82.110909,105.458855 83.062073,105.314728 84.385315,105.272224 
	C84.556328,106.994621 84.355240,108.615395 84.106750,111.074997 
	C83.828712,115.213005 83.598068,118.512199 83.367432,121.811386 
	C82.841995,121.861984 82.316551,121.912590 81.383698,121.689789 
	C80.965210,121.227768 80.954155,121.039169 80.943108,120.850563 
z"/>
<path fill="#F4FDEE" opacity="1.000000" stroke="none" 
	d="
M159.540665,67.999626 
	C157.269150,68.777138 154.563263,69.544632 151.453003,70.397552 
	C151.059128,65.606010 151.069641,60.729031 151.157227,55.440174 
	C152.577728,58.977238 153.921158,62.926182 155.562454,67.750610 
	C155.971649,67.778206 157.538971,67.883911 159.540665,67.999626 
z"/>
<path fill="#E5F9FC" opacity="1.000000" stroke="none" 
	d="
M75.506714,107.991402 
	C75.856194,112.061966 75.875053,116.136681 75.772125,120.670952 
	C74.650055,121.078918 73.649773,121.027328 72.273750,120.960197 
	C73.344513,118.695534 74.270920,116.695312 72.170845,113.999954 
	C71.435730,113.056465 72.721786,110.538208 73.138618,108.361305 
	C73.853607,107.987549 74.514854,107.991554 75.506714,107.991402 
z"/>
<path fill="#F4FDEE" opacity="1.000000" stroke="none" 
	d="
M92.677658,16.048515 
	C87.321266,19.406178 81.539429,22.731215 75.414658,26.120871 
	C75.915329,24.851580 76.449745,22.886673 77.657089,22.295048 
	C82.407181,19.967422 87.368996,18.071846 92.677658,16.048515 
z"/>
<path fill="#F4FDEE" opacity="1.000000" stroke="none" 
	d="
M176.512970,58.981827 
	C172.942062,64.541176 166.472351,65.545425 160.391754,67.957153 
	C165.392426,64.986435 170.768799,61.985512 176.512970,58.981827 
z"/>
<path fill="#F4FDEE" opacity="1.000000" stroke="none" 
	d="
M122.943680,17.641815 
	C117.958984,16.983564 112.916908,15.965313 107.465073,14.853594 
	C112.670280,13.478871 118.175659,12.885677 122.943680,17.641815 
z"/>
<path fill="#EAF9FB" opacity="1.000000" stroke="none" 
	d="
M137.756348,107.056694 
	C135.282944,109.413307 133.483459,112.246582 134.035019,116.538406 
	C133.523132,117.235680 132.981979,117.521431 132.151947,117.909836 
	C131.932480,114.644257 132.001862,111.276016 132.200333,107.467148 
	C134.022720,107.042007 135.716034,107.057495 137.756348,107.056694 
z"/>
<path fill="#1B5173" opacity="1.000000" stroke="none" 
	d="
M161.183136,106.498764 
	C161.557053,109.157402 162.188217,112.292770 161.894867,115.339096 
	C161.441986,120.041977 163.269669,121.694565 167.746582,121.018166 
	C168.554413,120.896111 169.399399,121.019867 170.691315,121.055145 
	C167.861801,121.526428 164.568207,121.972694 161.026138,122.452637 
	C161.026138,116.887520 161.026138,111.911560 161.183136,106.498764 
z"/>
<path fill="#379E6C" opacity="1.000000" stroke="none" 
	d="
M41.614998,64.006203 
	C42.876377,64.661293 43.786186,65.372810 45.095177,66.144745 
	C41.900333,67.346481 38.306309,68.487785 34.712280,69.629097 
	C34.496178,69.149757 34.280075,68.670425 34.063972,68.191086 
	C36.463791,66.814934 38.863605,65.438782 41.614998,64.006203 
z"/>
<path fill="#184A6C" opacity="1.000000" stroke="none" 
	d="
M45.507366,81.939560 
	C52.482197,81.695160 59.917294,81.518341 67.654716,81.621193 
	C60.627239,81.936287 53.297436,81.971710 45.507366,81.939560 
z"/>
<path fill="#1D4C6B" opacity="1.000000" stroke="none" 
	d="
M83.647385,121.841522 
	C83.598068,118.512199 83.828712,115.213005 84.160736,111.485001 
	C84.482231,111.486832 84.847221,111.900185 84.901009,112.350685 
	C85.938568,121.041061 85.931053,121.041962 95.411301,120.967957 
	C95.903580,121.125862 95.943176,121.290611 95.944664,121.706604 
	C95.906555,121.957840 95.442192,122.035759 94.969147,122.038765 
	C94.330742,122.085953 94.165382,122.130142 94.000015,122.174332 
	C93.552498,122.129951 93.104973,122.085564 91.893448,122.031616 
	C89.090469,122.071869 87.051498,122.121696 85.012527,122.171524 
	C84.650795,122.071564 84.289070,121.971611 83.647385,121.841522 
z"/>
<path fill="#F4FDEE" opacity="1.000000" stroke="none" 
	d="
M151.279114,52.744751 
	C149.958313,49.952911 148.921356,46.907501 147.865509,43.480110 
	C151.377106,45.322433 152.802155,48.379753 151.279114,52.744751 
z"/>
<path fill="#F4FDEE" opacity="1.000000" stroke="none" 
	d="
M147.626099,84.002876 
	C147.374603,83.196777 147.485535,82.374115 147.568420,81.237190 
	C150.750183,79.945908 153.959961,78.968880 157.556122,77.958961 
	C157.540497,78.564735 157.288910,79.492416 156.710999,79.793205 
	C153.850876,81.281883 150.904510,82.604897 147.626099,84.002876 
z"/>
<path fill="#F4FDEE" opacity="1.000000" stroke="none" 
	d="
M144.432678,89.847702 
	C144.444778,88.848747 144.844223,87.907196 145.485992,86.764374 
	C148.577011,86.381531 151.425690,86.199959 154.685394,86.032120 
	C151.670959,87.332268 148.245468,88.618683 144.432678,89.847702 
z"/>
<path fill="#F4FDEE" opacity="1.000000" stroke="none" 
	d="
M72.704971,28.041317 
	C70.935707,30.963871 68.796753,33.867222 66.358185,36.925911 
	C65.677139,32.347637 68.682404,29.960526 72.704971,28.041317 
z"/>
<path fill="#184E6F" opacity="1.000000" stroke="none" 
	d="
M179.068085,114.487427 
	C181.294876,121.011055 181.294876,121.011055 190.392975,120.976517 
	C187.031647,121.466507 183.219620,121.961090 178.998871,122.508705 
	C178.998871,119.413727 178.998871,117.175461 179.068085,114.487427 
z"/>
<path fill="#F4FDEE" opacity="1.000000" stroke="none" 
	d="
M133.688965,24.016029 
	C130.841995,22.778986 128.093185,21.175806 125.175125,19.277557 
	C129.259918,18.041716 131.522369,20.847977 133.688965,24.016029 
z"/>
<path fill="#379E6C" opacity="1.000000" stroke="none" 
	d="
M46.417099,66.035034 
	C49.821564,65.149330 53.644241,64.290985 57.717789,63.679794 
	C54.257542,64.638763 50.546421,65.350578 46.417099,66.035034 
z"/>
<path fill="#F4FDEE" opacity="1.000000" stroke="none" 
	d="
M60.451614,50.199253 
	C60.590473,52.202969 60.416286,54.376118 60.102570,57.120720 
	C59.305874,57.791233 58.648705,57.890297 57.950386,57.945290 
	C57.909241,57.901218 57.831387,57.809135 57.831383,57.809135 
	C58.600445,55.328987 59.369507,52.848839 60.451614,50.199253 
z"/>
<path fill="#F4FDEE" opacity="1.000000" stroke="none" 
	d="
M102.643547,14.537722 
	C99.939667,15.239142 96.926712,15.692610 93.493286,16.136656 
	C95.414574,11.757317 99.220367,14.766758 102.643547,14.537722 
z"/>
<path fill="#EAF9FB" opacity="1.000000" stroke="none" 
	d="
M127.514076,108.168259 
	C127.815720,109.931793 127.815720,111.852142 127.815720,113.772491 
	C127.536522,113.910828 127.257324,114.049171 126.978134,114.187508 
	C126.042366,112.702194 125.106606,111.216873 124.057648,109.384354 
	C125.033791,108.799782 126.123108,108.562431 127.514076,108.168259 
z"/>
<path fill="#E9F9FC" opacity="1.000000" stroke="none" 
	d="
M101.044510,122.487564 
	C101.908760,121.684288 102.832581,121.184341 104.098541,120.186806 
	C105.075966,119.072037 105.711227,118.454872 106.346497,117.837700 
	C106.568970,118.664459 106.791443,119.491219 106.990433,120.656204 
	C105.012650,121.593262 103.058365,122.192085 101.044510,122.487564 
z"/>
<path fill="#F4FDEE" opacity="1.000000" stroke="none" 
	d="
M65.728790,37.082817 
	C64.976982,39.623596 63.861870,42.192600 62.474358,44.972092 
	C61.523094,41.812695 62.322174,39.022072 65.728790,37.082817 
z"/>
<path fill="#19557D" opacity="1.000000" stroke="none" 
	d="
M22.584658,108.923553 
	C22.615498,111.888481 22.313061,114.996712 22.008654,118.548431 
	C19.887718,115.629318 19.944838,112.320366 22.584658,108.923553 
z"/>
<path fill="#EAF9FB" opacity="1.000000" stroke="none" 
	d="
M139.351685,101.519577 
	C142.077301,100.873390 145.119064,100.450272 148.571320,100.073433 
	C145.877136,100.660698 142.772476,101.201675 139.351685,101.519577 
z"/>
<path fill="#164F75" opacity="1.000000" stroke="none" 
	d="
M188.019577,68.840538 
	C188.005402,67.780655 187.991226,66.720764 188.049133,65.000198 
	C188.447922,63.910587 188.774643,63.481667 189.101364,63.052750 
	C189.636948,63.634686 190.703644,64.334229 190.605835,64.775902 
	C190.341324,65.970329 189.581772,67.055130 188.747986,68.579117 
	C188.477402,68.974815 188.019577,68.840538 188.019577,68.840538 
z"/>
<path fill="#F4FDEE" opacity="1.000000" stroke="none" 
	d="
M145.219849,36.819016 
	C143.999878,35.893864 143.048019,34.768364 142.038239,33.326775 
	C143.149536,34.213348 144.318756,35.416012 145.219849,36.819016 
z"/>
<path fill="#E5F9FC" opacity="1.000000" stroke="none" 
	d="
M80.516815,120.906998 
	C80.954155,121.039169 80.965210,121.227768 80.987686,121.699310 
	C79.382965,122.024628 77.766823,122.067009 76.001915,121.813721 
	C77.265602,121.333191 78.678062,121.148315 80.516815,120.906998 
z"/>
<path fill="#E7FEF6" opacity="1.000000" stroke="none" 
	d="
M35.025162,152.261078 
	C35.704132,153.995758 36.364105,156.093353 37.072079,158.573822 
	C36.415440,156.845810 35.710804,154.734909 35.025162,152.261078 
z"/>
<path fill="#F4FDEE" opacity="1.000000" stroke="none" 
	d="
M141.996262,32.623817 
	C140.993683,31.914162 139.998230,30.810032 138.957916,29.380280 
	C139.943146,30.112886 140.973251,31.171118 141.996262,32.623817 
z"/>
<path fill="#EAF9FB" opacity="1.000000" stroke="none" 
	d="
M85.086853,86.534592 
	C86.577759,86.561211 88.159248,86.946114 89.915047,87.642654 
	C88.452042,87.600487 86.814743,87.246681 85.086853,86.534592 
z"/>
<path fill="#E9F9FC" opacity="1.000000" stroke="none" 
	d="
M85.292084,122.414001 
	C87.051498,122.121696 89.090469,122.071869 91.561081,122.098091 
	C89.852364,122.334923 87.711998,122.495705 85.292084,122.414001 
z"/>
<path fill="#184E6F" opacity="1.000000" stroke="none" 
	d="
M190.742828,118.625862 
	C188.751495,118.893402 186.655762,118.762779 184.285507,118.365417 
	C186.220139,118.141678 188.429276,118.184692 190.742828,118.625862 
z"/>
<path fill="#184E6F" opacity="1.000000" stroke="none" 
	d="
M179.163208,106.473679 
	C179.415665,108.184044 179.526825,110.305748 179.387375,112.691452 
	C179.098495,110.931976 179.060211,108.908501 179.163208,106.473679 
z"/>
<path fill="#EAF9FB" opacity="1.000000" stroke="none" 
	d="
M91.080780,88.527084 
	C92.497414,88.610077 93.999268,89.045616 95.720444,89.744614 
	C94.348503,89.631920 92.757248,89.255775 91.080780,88.527084 
z"/>
<path fill="#F4FDEE" opacity="1.000000" stroke="none" 
	d="
M138.935974,28.732485 
	C137.964020,28.298147 136.981415,27.509363 135.942825,26.396744 
	C136.899658,26.841284 137.912491,27.609659 138.935974,28.732485 
z"/>
<path fill="#F4FDEE" opacity="1.000000" stroke="none" 
	d="
M168.223633,72.926025 
	C168.670166,71.961815 169.469376,70.987022 170.612152,69.981506 
	C170.162582,70.939011 169.369446,71.927231 168.223633,72.926025 
z"/>
<path fill="#EAF9FB" opacity="1.000000" stroke="none" 
	d="
M97.073479,90.514984 
	C98.200653,90.604683 99.406601,91.037582 100.801056,91.738571 
	C99.710464,91.623833 98.431358,91.241005 97.073479,90.514984 
z"/>
<path fill="#F4FDEE" opacity="1.000000" stroke="none" 
	d="
M147.932312,42.733925 
	C147.244675,41.990887 146.594208,40.856018 145.909882,39.384918 
	C146.573868,40.146496 147.271683,41.244297 147.932312,42.733925 
z"/>
<path fill="#EAF9FB" opacity="1.000000" stroke="none" 
	d="
M101.069641,92.374786 
	C102.278130,92.442093 103.561287,92.875122 105.005234,93.615410 
	C103.825455,93.528610 102.484879,93.134552 101.069641,92.374786 
z"/>
<path fill="#F4FDEE" opacity="1.000000" stroke="none" 
	d="
M188.717407,63.046753 
	C188.774643,63.481667 188.447922,63.910587 188.036407,64.602890 
	C187.499802,65.218147 187.048019,65.570023 186.322388,66.018555 
	C186.810165,65.090401 187.571808,64.065582 188.717407,63.046753 
z"/>
<path fill="#EAF9FB" opacity="1.000000" stroke="none" 
	d="
M106.077843,94.493073 
	C107.270096,94.535767 108.543114,94.929939 109.956909,95.633850 
	C108.784668,95.577240 107.471634,95.210899 106.077843,94.493073 
z"/>
<path fill="#F4FDEE" opacity="1.000000" stroke="none" 
	d="
M61.932526,45.179077 
	C62.008453,46.016479 61.740303,46.813744 61.208481,47.795601 
	C61.159363,47.033104 61.373909,46.086021 61.932526,45.179077 
z"/>
<path fill="#F4FDEE" opacity="1.000000" stroke="none" 
	d="
M51.020374,59.939896 
	C51.960918,59.550213 52.901466,59.160530 54.038887,59.211723 
	C54.235760,59.652599 54.279655,59.940762 54.279655,59.940762 
	C54.279655,59.940762 54.019062,59.911179 53.587616,59.966522 
	C52.444237,59.994541 51.732304,59.967220 51.020374,59.939896 
z"/>
<path fill="#F4FDEE" opacity="1.000000" stroke="none" 
	d="
M185.292923,73.911179 
	C185.405670,73.029594 185.870148,72.111664 186.635284,71.075714 
	C186.505508,71.930069 186.075089,72.902458 185.292923,73.911179 
z"/>
<path fill="#F4FDEE" opacity="1.000000" stroke="none" 
	d="
M135.908234,25.754780 
	C135.221817,25.743885 134.514267,25.372326 133.715668,24.707136 
	C134.378784,24.740376 135.132919,25.067245 135.908234,25.754780 
z"/>
<path fill="#E8FAFC" opacity="1.000000" stroke="none" 
	d="
M35.925186,106.773872 
	C35.356724,106.615822 34.760014,106.117844 34.032001,105.328842 
	C34.566116,105.503189 35.231525,105.968559 35.925186,106.773872 
z"/>
<path fill="#F4FDEE" opacity="1.000000" stroke="none" 
	d="
M187.725006,68.976700 
	C188.019577,68.840538 188.477402,68.974815 188.713333,68.940437 
	C188.503967,69.566002 188.058670,70.225945 187.282761,70.912048 
	C187.111572,70.329750 187.271011,69.721306 187.725006,68.976700 
z"/>
<path fill="#EAF9FB" opacity="1.000000" stroke="none" 
	d="
M122.239479,100.394951 
	C122.847168,100.290939 123.667824,100.416473 124.693253,100.790016 
	C124.082832,100.900177 123.267639,100.762329 122.239479,100.394951 
z"/>
<path fill="#469C42" opacity="1.000000" stroke="none" 
	d="
M50.894585,60.134819 
	C51.732304,59.967220 52.444237,59.994541 53.505112,60.068451 
	C53.008945,60.372097 52.163834,60.629158 50.965584,60.826397 
	C50.612453,60.766575 50.768799,60.329742 50.894585,60.134819 
z"/>
<path fill="#469C42" opacity="1.000000" stroke="none" 
	d="
M54.520966,59.932808 
	C54.279655,59.940762 54.235760,59.652599 54.220455,59.507336 
	C54.586948,59.263901 54.968746,59.165726 55.641373,59.109570 
	C55.542221,59.409344 55.152245,59.667099 54.520966,59.932808 
z"/>
<path fill="#379E6C" opacity="1.000000" stroke="none" 
	d="
M43.700806,63.068733 
	C43.513683,63.418049 43.025688,63.701271 42.242870,63.973137 
	C42.432007,63.642067 42.915970,63.322353 43.700806,63.068733 
z"/>
<path fill="#F4FDEE" opacity="1.000000" stroke="none" 
	d="
M157.902145,85.076042 
	C157.691376,85.380806 157.175034,85.671890 156.340073,85.896339 
	C156.546494,85.573921 157.071518,85.318138 157.902145,85.076042 
z"/>
<path fill="#1D587D" opacity="1.000000" stroke="none" 
	d="
M172.572906,87.319511 
	C172.667511,86.954430 173.047363,86.515648 173.751892,86.063766 
	C173.670441,86.449051 173.264282,86.847427 172.572906,87.319511 
z"/>
<path fill="#1D587D" opacity="1.000000" stroke="none" 
	d="
M167.354340,91.079887 
	C167.515778,90.772057 167.967392,90.404015 168.730072,90.030312 
	C168.575607,90.356323 168.110062,90.688004 167.354340,91.079887 
z"/>
<path fill="#164F75" opacity="1.000000" stroke="none" 
	d="
M178.881821,73.786537 
	C178.446838,74.170906 178.011856,74.555275 177.263809,74.957352 
	C177.166428,74.678055 177.382111,74.381042 178.029449,73.955734 
	C178.461105,73.827431 178.881821,73.786537 178.881821,73.786537 
z"/>
<path fill="#1D587D" opacity="1.000000" stroke="none" 
	d="
M164.367279,93.091431 
	C164.521835,92.783157 164.966568,92.411819 165.721359,92.029800 
	C165.573425,92.355537 165.115463,92.691948 164.367279,93.091431 
z"/>
<path fill="#F4FDEE" opacity="1.000000" stroke="none" 
	d="
M182.895416,76.039978 
	C183.081024,75.743034 183.266632,75.446091 183.704514,75.065872 
	C183.832367,75.529205 183.707962,76.075821 183.324326,76.562431 
	C183.065109,76.502426 182.895416,76.039978 182.895416,76.039978 
z"/>
<path fill="#1D587D" opacity="1.000000" stroke="none" 
	d="
M182.666916,76.208221 
	C182.895416,76.039978 183.065109,76.502426 183.103485,76.745453 
	C182.898941,77.226387 182.656021,77.464294 182.198639,77.839996 
	C182.135590,77.444008 182.287003,76.910240 182.666916,76.208221 
z"/>
<path fill="#F4FDEE" opacity="1.000000" stroke="none" 
	d="
M57.724159,58.819962 
	C57.332836,58.854847 56.941513,58.889732 56.262444,58.862213 
	C56.418922,58.515472 56.863144,58.231148 57.569378,57.877975 
	C57.831387,57.809135 57.909241,57.901218 57.866711,58.147530 
	C57.824181,58.393841 57.724159,58.819962 57.724159,58.819962 
z"/>
<path fill="#EAF9FB" opacity="1.000000" stroke="none" 
	d="
M135.047165,118.222900 
	C135.313614,118.077003 135.558502,118.245186 135.715363,118.754517 
	C135.433853,118.872437 135.233276,118.686211 135.047165,118.222900 
z"/>
<path fill="#19557D" opacity="1.000000" stroke="none" 
	d="
M22.036041,119.269348 
	C22.332533,119.091927 22.594147,119.277870 22.898365,119.772789 
	C22.690817,119.843300 22.377548,119.693619 22.036041,119.269348 
z"/>
<path fill="#E7FEF6" opacity="1.000000" stroke="none" 
	d="
M34.137390,150.101212 
	C34.364334,150.070343 34.632004,150.272018 34.864616,150.734070 
	C34.530506,150.854950 34.313362,150.634735 34.137390,150.101212 
z"/>
<path fill="#E8FAFC" opacity="1.000000" stroke="none" 
	d="
M39.126755,118.150124 
	C39.341103,118.101906 39.628399,118.286011 39.925430,118.733658 
	C39.616627,118.880043 39.371471,118.675133 39.126755,118.150124 
z"/>
<path fill="#EAF9FB" opacity="1.000000" stroke="none" 
	d="
M134.121719,117.161652 
	C134.323608,117.112305 134.608109,117.299889 134.936920,117.747009 
	C134.722244,117.803902 134.463287,117.601250 134.121719,117.161652 
z"/>
<path fill="#E8FAFC" opacity="1.000000" stroke="none" 
	d="
M41.126438,120.278961 
	C41.307697,120.197998 41.612549,120.331032 42.007057,120.715668 
	C41.753792,120.917488 41.471561,120.759384 41.126438,120.278961 
z"/>
<path fill="#E8FAFC" opacity="1.000000" stroke="none" 
	d="
M43.097103,121.338730 
	C43.166122,121.155861 43.332218,121.115227 43.748466,121.131622 
	C43.730465,121.286095 43.462322,121.383530 43.097103,121.338730 
z"/>
<path fill="#F4FDEE" opacity="1.000000" stroke="none" 
	d="
M73.880035,27.130344 
	C73.945633,27.344723 73.755165,27.640079 73.304153,28.008722 
	C73.237061,27.791779 73.430519,27.501551 73.880035,27.130344 
z"/>
<path fill="#EAF9FB" opacity="1.000000" stroke="none" 
	d="
M138.152985,121.281181 
	C138.344009,121.169250 138.683395,121.273926 139.136841,121.633293 
	C138.934387,121.757912 138.617859,121.627846 138.152985,121.281181 
z"/>
<path fill="#E9F9FC" opacity="1.000000" stroke="none" 
	d="
M94.095695,122.317108 
	C94.165382,122.130142 94.330742,122.085953 94.744148,122.108047 
	C94.725250,122.269508 94.458313,122.364700 94.095695,122.317108 
z"/>
<path fill="#F4FDEE" opacity="1.000000" stroke="none" 
	d="
M166.153427,73.893021 
	C166.112778,73.677757 166.290985,73.400063 166.724777,73.147446 
	C166.854935,73.463287 166.652237,73.682648 166.153427,73.893021 
z"/>
<path fill="#1D587D" opacity="1.000000" stroke="none" 
	d="
M181.296844,79.024643 
	C181.198883,78.815071 181.365295,78.525200 181.755676,78.112457 
	C181.840179,78.307846 181.700684,78.626099 181.296844,79.024643 
z"/>
<path fill="#F4FDEE" opacity="1.000000" stroke="none" 
	d="
M146.333862,85.871429 
	C146.082214,85.613129 146.213348,85.332016 146.757446,85.059708 
	C146.935837,85.300888 146.784576,85.560921 146.333862,85.871429 
z"/>
<path fill="#1D587D" opacity="1.000000" stroke="none" 
	d="
M174.304291,86.014107 
	C174.224426,85.795639 174.411102,85.512085 174.836304,85.126022 
	C174.906845,85.332024 174.738846,85.640526 174.304291,86.014107 
z"/>
<path fill="#F4FDEE" opacity="1.000000" stroke="none" 
	d="
M162.885727,83.104340 
	C162.918823,83.323883 162.727432,83.605316 162.274445,83.851868 
	C162.157516,83.528831 162.373642,83.311913 162.885727,83.104340 
z"/>
<path fill="#1D587D" opacity="1.000000" stroke="none" 
	d="
M171.327148,88.089111 
	C171.302582,87.878922 171.538162,87.599831 172.059967,87.320107 
	C172.093246,87.553055 171.840286,87.786636 171.327148,88.089111 
z"/>
<path fill="#1D587D" opacity="1.000000" stroke="none" 
	d="
M169.294739,90.006241 
	C169.235840,89.766212 169.457413,89.495895 169.934937,89.149948 
	C169.985672,89.374863 169.780441,89.675400 169.294739,90.006241 
z"/>
<path fill="#1D587D" opacity="1.000000" stroke="none" 
	d="
M166.281891,91.991936 
	C166.220901,91.761589 166.428848,91.494263 166.884705,91.151001 
	C166.938690,91.368370 166.744766,91.661667 166.281891,91.991936 
z"/>
<path fill="#EAF9FB" opacity="1.000000" stroke="none" 
	d="
M111.139816,96.382950 
	C111.310326,96.284012 111.610909,96.376671 112.002792,96.714081 
	C111.770424,96.935684 111.495697,96.807602 111.139816,96.382950 
z"/>
<path fill="#EAF9FB" opacity="1.000000" stroke="none" 
	d="
M114.134201,97.431381 
	C114.375725,97.095863 114.654114,97.190399 114.940765,97.755508 
	C114.727959,97.954697 114.468636,97.833160 114.134201,97.431381 
z"/>
<path fill="#EAF9FB" opacity="1.000000" stroke="none" 
	d="
M116.141953,98.383316 
	C116.314270,98.280304 116.621094,98.369965 117.022995,98.707130 
	C116.789307,98.935593 116.508766,98.809372 116.141953,98.383316 
z"/>
<path fill="#1D587D" opacity="1.000000" stroke="none" 
	d="
M177.323883,83.044609 
	C177.256516,82.836754 177.443069,82.542770 177.883270,82.161385 
	C177.950562,82.368820 177.764206,82.663651 177.323883,83.044609 
z"/>
<path fill="#EAF9FB" opacity="1.000000" stroke="none" 
	d="
M131.092834,101.339325 
	C131.174072,101.158691 131.341492,101.121910 131.746613,101.183228 
	C131.984329,101.281326 131.623474,101.599335 131.623474,101.599335 
	C131.623474,101.599335 131.179047,101.483162 131.092834,101.339325 
z"/>
<path fill="#1D587D" opacity="1.000000" stroke="none" 
	d="
M178.336182,82.053093 
	C178.266296,81.837822 178.460129,81.541466 178.908997,81.151115 
	C178.975967,81.362076 178.787933,81.667046 178.336182,82.053093 
z"/>
<path fill="#F4FDEE" opacity="1.000000" stroke="none" 
	d="
M166.827805,81.085709 
	C166.980133,81.364868 166.808716,81.624298 166.281143,81.777962 
	C166.164963,81.479958 166.358002,81.277893 166.827805,81.085709 
z"/>
<path fill="#F4FDEE" opacity="1.000000" stroke="none" 
	d="
M158.141403,77.895386 
	C157.965378,77.583450 158.150665,77.327934 158.725449,77.202248 
	C158.843399,77.510078 158.639328,77.716660 158.141403,77.895386 
z"/>
<path fill="#F4FDEE" opacity="1.000000" stroke="none" 
	d="
M174.808502,76.103760 
	C174.854416,76.316376 174.691116,76.599838 174.272797,76.853867 
	C174.140427,76.544098 174.334259,76.327499 174.808502,76.103760 
z"/>
<path fill="#F4FDEE" opacity="1.000000" stroke="none" 
	d="
M161.069901,76.863907 
	C161.037018,76.646965 161.241730,76.379440 161.707611,76.119492 
	C161.837677,76.441895 161.617249,76.670647 161.069901,76.863907 
z"/>
<path fill="#164F75" opacity="1.000000" stroke="none" 
	d="
M176.752029,74.968033 
	C176.771103,75.220345 176.557220,75.489822 176.144058,75.618240 
	C175.944794,75.477196 176.055359,75.042007 176.055359,75.042007 
	C176.055359,75.042007 176.519073,74.985184 176.752029,74.968033 
z"/>
<path fill="#F4FDEE" opacity="1.000000" stroke="none" 
	d="
M175.824646,75.132416 
	C176.055359,75.042007 175.944794,75.477196 175.892151,75.695206 
	C175.839523,75.913216 175.435089,75.958336 175.234009,75.987564 
	C175.116516,75.679047 175.303528,75.414391 175.824646,75.132416 
z"/>
<path fill="#F4FDEE" opacity="1.000000" stroke="none" 
	d="
M162.935562,75.826416 
	C162.919968,75.601181 163.170456,75.348465 163.699829,75.097031 
	C163.719696,75.331856 163.460663,75.565392 162.935562,75.826416 
z"/>
<path fill="#F4FDEE" opacity="1.000000" stroke="none" 
	d="
M164.877487,74.807411 
	C164.854385,74.586266 165.125351,74.327072 165.678741,73.999397 
	C165.697952,74.210403 165.434738,74.489883 164.877487,74.807411 
z"/>
<path fill="#F4FDEE" opacity="1.000000" stroke="none" 
	d="
M178.905090,73.593826 
	C178.881821,73.786537 178.461105,73.827431 178.254211,73.786224 
	C178.155777,73.475441 178.338837,73.273529 178.795349,73.078903 
	C178.994186,73.018509 178.928345,73.401115 178.905090,73.593826 
z"/>
<path fill="#1D587D" opacity="1.000000" stroke="none" 
	d="
M176.299500,84.028519 
	C176.230576,83.803040 176.431030,83.522377 176.880920,83.154251 
	C176.943192,83.368973 176.756042,83.671165 176.299500,84.028519 
z"/>
<path fill="#F4FDEE" opacity="1.000000" stroke="none" 
	d="
M179.802124,72.115799 
	C179.864197,72.314400 179.703110,72.613411 179.281158,72.956161 
	C179.113083,72.672058 179.299301,72.410812 179.802124,72.115799 
z"/>
<path fill="#EAF9FB" opacity="1.000000" stroke="none" 
	d="
M123.908951,108.843445 
	C123.693604,108.877632 123.420776,108.694641 123.183624,108.258881 
	C123.500366,108.141136 123.711090,108.347855 123.908951,108.843445 
z"/>
<path fill="#F4FDEE" opacity="1.000000" stroke="none" 
	d="
M180.834656,71.123352 
	C180.882416,71.307381 180.693130,71.583488 180.259949,71.943359 
	C180.209915,71.756561 180.403763,71.486000 180.834656,71.123352 
z"/>
<path fill="#469C42" opacity="1.000000" stroke="none" 
	d="
M58.170425,58.878754 
	C57.724159,58.819962 57.824181,58.393841 57.907856,58.191601 
	C58.648705,57.890297 59.305874,57.791233 60.249817,57.516193 
	C65.095459,56.845348 69.678802,55.784908 74.207794,55.980820 
	C82.094017,56.321964 89.946709,57.437920 98.119492,58.505814 
	C92.539505,58.203976 86.647339,57.107708 80.769020,57.177513 
	C73.378990,57.265270 66.000282,58.307301 58.170425,58.878754 
z"/>
<path fill="#469C42" opacity="1.000000" stroke="none" 
	d="
M114.651268,63.798561 
	C113.010559,63.610069 111.176239,63.134205 109.201447,62.324368 
	C110.859871,62.497326 112.658768,63.004257 114.651268,63.798561 
z"/>
<path fill="#469C42" opacity="1.000000" stroke="none" 
	d="
M102.640106,59.775963 
	C101.727112,59.851429 100.576332,59.675972 99.219620,59.211754 
	C100.143227,59.123680 101.272774,59.324360 102.640106,59.775963 
z"/>
<path fill="#469C42" opacity="1.000000" stroke="none" 
	d="
M105.883461,60.669548 
	C105.199844,60.833454 104.312813,60.717941 103.220810,60.330582 
	C103.903908,60.169201 104.791969,60.279667 105.883461,60.669548 
z"/>
<path fill="#469C42" opacity="1.000000" stroke="none" 
	d="
M108.801231,61.713322 
	C108.427933,61.839203 107.891800,61.729595 107.187927,61.392769 
	C107.559586,61.269642 108.098991,61.373741 108.801231,61.713322 
z"/>
<path fill="#469C42" opacity="1.000000" stroke="none" 
	d="
M116.055176,64.672363 
	C115.870125,64.793373 115.550591,64.687317 115.094360,64.361038 
	C115.278679,64.242302 115.599686,64.343803 116.055176,64.672363 
z"/>
<path fill="#FCFEFE" opacity="1.000000" stroke="none" 
	d="
M59.004639,73.266808 
	C59.229881,73.117966 59.525146,73.219620 59.896923,73.574265 
	C59.673840,73.723930 59.374252,73.620613 59.004639,73.266808 
z"/>
<path fill="#F3FEFA" opacity="1.000000" stroke="none" 
	d="
M62.717072,137.885071 
	C65.644478,133.739624 69.269104,133.082886 73.369843,134.756317 
	C77.633797,136.496353 78.420517,140.287735 77.859566,144.202866 
	C77.332191,147.883636 75.707901,151.259979 71.404037,151.922592 
	C67.118736,152.582352 63.019352,151.673004 61.802391,147.093643 
	C61.081001,144.379074 62.190018,141.178070 62.717072,137.885071 
z"/>
<path fill="#E1FEF4" opacity="1.000000" stroke="none" 
	d="
M172.693787,142.766205 
	C173.196014,140.240417 174.059143,137.868912 175.402100,134.179001 
	C176.537628,137.779465 177.257568,140.062256 178.158997,142.920471 
	C176.206100,142.920471 174.630386,142.920471 172.693787,142.766205 
z"/>
<path fill="#F8FEFE" opacity="1.000000" stroke="none" 
	d="
M44.710876,116.258621 
	C44.311275,114.976295 43.727871,113.770515 44.104088,113.118126 
	C44.970310,111.616028 46.117100,110.096283 47.534714,109.176743 
	C48.131748,108.789490 50.617447,109.815102 50.666183,110.343925 
	C50.864506,112.496033 50.801620,114.843124 50.027679,116.798859 
	C49.823307,117.315300 46.729790,116.688416 44.710876,116.258621 
z"/>
<path fill="#EFFBFD" opacity="1.000000" stroke="none" 
	d="
M141.321747,118.668640 
	C140.276367,115.537216 139.544403,112.640167 138.778961,109.610611 
	C143.476669,108.676903 146.901779,108.244118 147.759171,112.432281 
	C148.693634,116.996902 145.083511,118.057793 141.321747,118.668640 
z"/>
<path fill="#EAFAFD" opacity="1.000000" stroke="none" 
	d="
M166.925323,109.102798 
	C170.951508,108.855865 172.061920,111.017380 171.565125,114.060455 
	C171.023239,117.379753 169.109695,118.972382 165.363815,117.437958 
	C165.747986,114.666916 166.128815,111.920059 166.925323,109.102798 
z"/>
<path fill="#DFF9FC" opacity="1.000000" stroke="none" 
	d="
M106.248741,117.467270 
	C105.711227,118.454872 105.075966,119.072037 104.155678,119.869827 
	C103.733826,117.062416 103.371895,114.056038 103.612732,111.098763 
	C103.675781,110.324486 105.539955,109.455826 106.716980,109.117149 
	C107.287895,108.952881 108.182266,109.912788 108.930199,110.363754 
	C107.865692,111.349434 106.801193,112.335114 105.468681,113.568954 
	C105.619972,114.351212 105.885483,115.724030 106.248741,117.467270 
z"/>
<path fill="#1D4C6B" opacity="1.000000" stroke="none" 
	d="
M89.294411,118.192398 
	C91.270576,117.998642 93.475060,118.119972 95.802528,118.634644 
	C93.791252,118.854485 91.656990,118.680992 89.294411,118.192398 
z"/>
<path fill="#19557D" opacity="1.000000" stroke="none" 
	d="
M25.300102,113.781616 
	C25.242592,113.104309 25.395870,112.179649 25.843245,111.147568 
	C25.928524,111.871529 25.719707,112.702896 25.300102,113.781616 
z"/>
<path fill="#19557D" opacity="1.000000" stroke="none" 
	d="
M25.906342,116.676239 
	C25.649078,116.658585 25.423193,116.320229 25.197514,115.666733 
	C25.444387,115.686249 25.691051,116.020889 25.906342,116.676239 
z"/>
</svg>